<svg width="34" height="34" viewBox="0 0 34 34" fill="none" xmlns="http://www.w3.org/2000/svg">
<circle cx="17" cy="17" r="17" fill="#00732F"/>
<path d="M13.792 24.3333H10.5837C10.0337 24.3333 9.66699 23.9667 9.66699 23.4167C9.66699 22.8667 10.0337 22.5 10.5837 22.5H13.792C14.342 22.5 14.7087 22.8667 14.7087 23.4167C14.7087 23.9667 14.342 24.3333 13.792 24.3333Z" fill="white"/>
<path d="M12.8747 24.3333C12.508 24.3333 12.1413 24.2417 11.7747 24.0583C11.408 23.875 11.133 23.6 10.9497 23.325C10.7663 22.9583 10.583 22.5917 10.583 22.225C10.583 21.8583 10.583 21.4917 10.7663 21.125C10.9497 20.7583 11.133 20.4833 11.4997 20.2083C11.7747 19.9333 12.1413 19.8417 12.508 19.75C12.8747 19.6583 13.2413 19.75 13.608 19.8417C13.9747 19.9333 14.2497 20.2083 14.5247 20.4833C14.8913 20.85 14.8913 21.4 14.5247 21.7667C14.158 22.1333 13.608 22.1333 13.2413 21.7667C13.1497 21.675 13.1497 21.675 13.058 21.675C12.9663 21.675 12.8747 21.675 12.8747 21.675C12.783 21.675 12.6913 21.675 12.6913 21.7667C12.5997 21.8583 12.5997 21.8583 12.508 21.95V22.1333C12.508 22.225 12.508 22.3167 12.5997 22.3167C12.5997 22.4083 12.6913 22.4083 12.783 22.5C12.6913 22.5 12.783 22.5 12.8747 22.5C13.4247 22.5 13.7913 22.8667 13.7913 23.4167C13.7913 23.9667 13.4247 24.3333 12.8747 24.3333Z" fill="white"/>
<path d="M12.4167 18.8333C11.8667 18.8333 11.5 18.4667 11.5 17.9167V9.66667C11.5 9.11667 11.8667 8.75 12.4167 8.75C12.9667 8.75 13.3333 9.11667 13.3333 9.66667V17.9167C13.3333 18.4667 12.9667 18.8333 12.4167 18.8333Z" fill="white"/>
<path d="M21.4913 18.8333H19.7497C19.1997 18.8333 18.833 18.4666 18.833 17.9166C18.833 17.3666 19.1997 17 19.7497 17H21.4913C21.583 17 21.6747 17 21.7663 16.9083C21.858 16.9083 21.858 16.8166 21.9497 16.725C21.9497 16.6333 22.0413 16.5416 22.0413 16.5416C22.0413 16.45 22.0413 16.3583 21.9497 16.3583L19.933 12.9666C19.658 12.4166 19.7497 11.8666 20.208 11.5916C20.6663 11.4083 21.2163 11.5 21.4913 11.9583L23.508 15.35C23.6913 15.7166 23.783 16.0833 23.783 16.5416C23.783 16.9083 23.6913 17.3666 23.508 17.7333C23.3247 18.1 23.0497 18.375 22.683 18.5583C22.3163 18.7416 21.858 18.8333 21.4913 18.8333Z" fill="white"/>
<path d="M16.0837 18.8333C15.5337 18.8333 15.167 18.4667 15.167 17.9167C15.167 17.3667 15.5337 17 16.0837 17C16.6337 17 17.0003 17.3667 17.0003 17.9167C17.0003 18.4667 16.6337 18.8333 16.0837 18.8333Z" fill="white"/>
</svg>
