<svg width="99" height="21" viewBox="0 0 99 21" fill="none" xmlns="http://www.w3.org/2000/svg">
<path d="M3.264 7.284V14.5H1.024V3.3H3.872L7.488 11.828L11.088 3.3H13.936V14.5H11.696V7.316L8.608 14.5H6.352L3.264 7.284ZM18.2328 9.924V14.5H15.9928V3.3H18.2328V7.876H19.5128L23.8808 3.3H26.9208L21.6088 8.9L27.3368 14.5H24.2168L19.4648 9.924H18.2328ZM27.0877 14.5L32.7038 3.3H35.1998L40.8478 14.5H38.3518L37.0238 11.86H30.8958L29.5678 14.5H27.0877ZM31.9198 9.812H35.9838L33.9518 5.78L31.9198 9.812ZM51.332 11.38C51.332 13.236 49.524 14.74 46.532 14.74C43.524 14.74 41.188 13.268 41.028 11.06H43.364C43.604 12.132 44.868 12.82 46.5 12.82C48.02 12.82 49.092 12.18 49.092 11.316C49.092 8.644 41.172 11.364 41.172 6.244C41.172 4.276 43.252 3.06 46.004 3.06C48.916 3.06 50.964 4.452 51.14 6.484H48.82C48.628 5.62 47.444 4.916 46.004 4.916C44.436 4.916 43.412 5.508 43.412 6.308C43.412 8.788 51.332 6.196 51.332 11.38ZM62.7383 11.38C62.7383 13.236 60.9303 14.74 57.9383 14.74C54.9303 14.74 52.5943 13.268 52.4342 11.06H54.7703C55.0103 12.132 56.2743 12.82 57.9063 12.82C59.4263 12.82 60.4983 12.18 60.4983 11.316C60.4983 8.644 52.5783 11.364 52.5783 6.244C52.5783 4.276 54.6583 3.06 57.4103 3.06C60.3223 3.06 62.3703 4.452 62.5463 6.484H60.2263C60.0343 5.62 58.8503 4.916 57.4103 4.916C55.8423 4.916 54.8183 5.508 54.8183 6.308C54.8183 8.788 62.7383 6.196 62.7383 11.38ZM62.9315 14.5L68.5475 3.3H71.0435L76.6915 14.5H74.1955L72.8675 11.86H66.7395L65.4115 14.5H62.9315ZM67.7635 9.812H71.8275L69.7955 5.78L67.7635 9.812Z" fill="#1C69DB"/>
<g clip-path="url(#clip0_75_2997)">
<path d="M98.5325 8.18834L98.9997 9.00031C97.9453 10.8336 96.8918 12.6679 95.8372 14.5003H94.0736L97.2198 9.00031L96.7544 8.18834H96.75L94.0738 3.5H95.8374L98.5369 8.18834H98.5325ZM92.2969 11.4393H90.5182L88.7819 14.5003H87L89.6579 9.81444H93.2275L93.6929 9L93.2275 8.18803H89.6579L87.0023 3.5H88.7834L90.5185 6.56224H92.2963L90.5458 3.5H92.3103L95.0097 8.18834H95.0042L95.4728 9.00031C94.4181 10.8336 93.3635 12.6679 92.31 14.5003H90.5455L92.2966 11.4393H92.2969Z" fill="#1C69DB"/>
</g>
<defs>
<clipPath id="clip0_75_2997">
<rect width="12" height="11" fill="white" transform="translate(87 3.5)"/>
</clipPath>
</defs>
</svg>
