<svg width="34" height="34" viewBox="0 0 34 34" fill="none" xmlns="http://www.w3.org/2000/svg">
<circle cx="17" cy="17" r="17" fill="#1C69DB"/>
<path d="M18.2324 18.8423H13.5833V17.3636H18.1813C18.5279 17.3636 18.812 17.3125 19.0336 17.2102C19.2551 17.108 19.4185 16.9631 19.5236 16.7756C19.6287 16.5881 19.6813 16.3665 19.6813 16.1108C19.6813 15.8608 19.6287 15.6349 19.5236 15.4332C19.4185 15.2315 19.258 15.071 19.0421 14.9517C18.8262 14.8324 18.5563 14.7727 18.2324 14.7727H16.6557V22H14.8233V13.2727H18.2324C18.9228 13.2727 19.5137 13.3963 20.0051 13.6435C20.4995 13.8878 20.8773 14.223 21.1387 14.6491C21.4 15.0724 21.5293 15.5526 21.5265 16.0895C21.5293 16.652 21.3972 17.1392 21.1301 17.5511C20.8631 17.9631 20.4824 18.2812 19.9881 18.5057C19.4938 18.7301 18.9086 18.8423 18.2324 18.8423ZM18.5605 19.4048V20.8835H13.5833V19.4048H18.5605Z" fill="white"/>
</svg>
