<svg width="34" height="34" viewBox="0 0 34 34" fill="none" xmlns="http://www.w3.org/2000/svg">
<circle cx="17" cy="17" r="17" fill="#10438E"/>
<path d="M16.6588 23.2727V10.5455H17.4742V23.2727H16.6588ZM18.8215 14.7464C18.7817 14.3454 18.611 14.0339 18.3094 13.8118C18.0078 13.5897 17.5985 13.4787 17.0814 13.4787C16.7301 13.4787 16.4334 13.5284 16.1915 13.6278C15.9495 13.724 15.7639 13.8582 15.6347 14.0305C15.5087 14.2029 15.4458 14.3984 15.4458 14.6172C15.4391 14.7995 15.4772 14.9586 15.5601 15.0945C15.6463 15.2304 15.7639 15.348 15.9131 15.4474C16.0622 15.5436 16.2346 15.6281 16.4301 15.701C16.6257 15.7706 16.8345 15.8303 17.0566 15.88L17.9713 16.0987C18.4155 16.1982 18.8231 16.3307 19.1943 16.4964C19.5655 16.6622 19.887 16.866 20.1588 17.108C20.4306 17.3499 20.6411 17.6349 20.7902 17.9631C20.9427 18.2912 21.0206 18.6674 21.0239 19.0916C21.0206 19.7147 20.8615 20.255 20.5466 20.7124C20.2351 21.1664 19.7843 21.5194 19.1943 21.7713C18.6077 22.0199 17.9001 22.1442 17.0715 22.1442C16.2495 22.1442 15.5336 22.0182 14.9237 21.7663C14.3172 21.5144 13.8432 21.1416 13.5019 20.6477C13.1638 20.1506 12.9865 19.5357 12.9699 18.8033H15.053C15.0762 19.1446 15.174 19.4297 15.3463 19.6584C15.522 19.8838 15.7557 20.0545 16.0473 20.1705C16.3423 20.2831 16.6754 20.3395 17.0466 20.3395C17.4112 20.3395 17.7277 20.2865 17.9962 20.1804C18.268 20.0743 18.4784 19.9268 18.6276 19.7379C18.7767 19.549 18.8513 19.3319 18.8513 19.0866C18.8513 18.858 18.7834 18.6657 18.6475 18.5099C18.5149 18.3542 18.3193 18.2216 18.0608 18.1122C17.8056 18.0028 17.4924 17.9034 17.1212 17.8139L16.0125 17.5355C15.1541 17.3267 14.4763 17.0002 13.9791 16.5561C13.482 16.112 13.2351 15.5137 13.2384 14.7614C13.2351 14.1449 13.3991 13.6063 13.7306 13.1456C14.0653 12.6849 14.5244 12.3253 15.1077 12.0668C15.691 11.8082 16.3539 11.679 17.0963 11.679C17.852 11.679 18.5116 11.8082 19.075 12.0668C19.6418 12.3253 20.0826 12.6849 20.3975 13.1456C20.7123 13.6063 20.8747 14.1399 20.8847 14.7464H18.8215Z" fill="white"/>
</svg>
