<svg width="34" height="34" viewBox="0 0 34 34" fill="none" xmlns="http://www.w3.org/2000/svg">
<circle cx="17" cy="17" r="17" fill="white"/>
<path d="M7 18L10.5 10H23.5L27 18L17 28L7 18Z" fill="#26A17B"/>
<path d="M22.75 18C22.75 18.0641 22.692 18.1968 22.4013 18.3687C22.1273 18.5306 21.7143 18.685 21.182 18.8181C20.1212 19.0833 18.6426 19.25 17 19.25C15.3574 19.25 13.8788 19.0833 12.818 18.8181C12.2857 18.685 11.8727 18.5306 11.5987 18.3687C11.308 18.1968 11.25 18.0641 11.25 18C11.25 17.9359 11.308 17.8032 11.5987 17.6313C11.8727 17.4694 12.2857 17.315 12.818 17.1819C13.8788 16.9167 15.3574 16.75 17 16.75C18.6426 16.75 20.1212 16.9167 21.182 17.1819C21.7143 17.315 22.1273 17.4694 22.4013 17.6313C22.692 17.8032 22.75 17.9359 22.75 18Z" stroke="white" stroke-width="0.5"/>
<path d="M12 15V12.5H22V15H18.5V18.5H15.5V15H12Z" fill="white"/>
<path d="M15.5 24.5V20H18.5V24.5H15.5Z" fill="white"/>
</svg>
